<svg width="15" height="16" viewBox="0 0 15 16" fill="none" xmlns="http://www.w3.org/2000/svg">
<path d="M14.7891 12.1563C15.0703 12.4563 15.0703 12.9438 14.7891 13.2438L12.416 15.775C12.1348 16.075 11.6777 16.075 11.3965 15.775L7.5 11.5813L3.60352 15.775C3.32227 16.075 2.86523 16.075 2.58398 15.775L0.210938 13.2438C-0.0703125 12.9438 -0.0703125 12.4563 0.210938 12.1563L4.14258 8L0.210938 3.84375C-0.0703125 3.54375 -0.0703125 3.05625 0.210938 2.75625L2.58398 0.225C2.86523 -0.075 3.32227 -0.075 3.60352 0.225L7.5 4.41875L11.3965 0.225C11.6777 -0.075 12.1348 -0.075 12.416 0.225L14.7891 2.75625C15.0703 3.05625 15.0703 3.54375 14.7891 3.84375L10.8574 8L14.7891 12.1563Z" fill="white"/>
</svg>
