<svg width="95" height="47" viewBox="0 0 95 47" fill="none" xmlns="http://www.w3.org/2000/svg">
<path d="M18.8281 9.0702V2.03566H21.1123C21.8705 2.03566 22.4399 2.19349 22.8206 2.50914C23.2045 2.82479 23.3965 3.29183 23.3965 3.91026C23.3965 4.23879 23.3037 4.53028 23.1181 4.78474C22.9326 5.03597 22.6799 5.23084 22.3599 5.36934C22.7375 5.47563 23.035 5.67855 23.2525 5.9781C23.4732 6.27443 23.5836 6.62873 23.5836 7.04101C23.5836 7.67232 23.3804 8.16834 22.9741 8.52913C22.5678 8.88979 21.9937 9.0702 21.2514 9.0702H18.8281ZM19.7495 5.78001V8.31169H21.2707C21.6993 8.31169 22.0368 8.20055 22.2832 7.9783C22.5327 7.75284 22.6574 7.44362 22.6574 7.05067C22.6574 6.20357 22.2 5.78001 21.285 5.78001H19.7495ZM19.7495 5.03597H21.1411C21.5441 5.03597 21.8657 4.93452 22.1056 4.73159C22.3488 4.52868 22.4703 4.25328 22.4703 3.90542C22.4703 3.51891 22.3584 3.23868 22.1344 3.06476C21.9105 2.8876 21.5698 2.79903 21.1123 2.79903H19.7495V5.03597ZM26.9666 9.16684C26.2629 9.16684 25.6902 8.93489 25.2487 8.47108C24.8072 8.00407 24.5865 7.38082 24.5865 6.60135V6.43708C24.5865 5.91851 24.6841 5.45631 24.8792 5.05047C25.0776 4.64141 25.3527 4.32254 25.7046 4.09384C26.0597 3.86194 26.4436 3.74599 26.8563 3.74599C27.5313 3.74599 28.0559 3.96984 28.4302 4.41755C28.8045 4.86526 28.9916 5.50623 28.9916 6.34045V6.71247H25.4743C25.4871 7.22782 25.6358 7.64493 25.9205 7.96381C26.2085 8.27945 26.5732 8.43727 27.0146 8.43727C27.3281 8.43727 27.5937 8.37287 27.8112 8.24403C28.0287 8.1152 28.219 7.94449 28.3822 7.7319L28.9245 8.15707C28.4894 8.83026 27.8367 9.16684 26.9666 9.16684ZM26.8563 4.48036C26.498 4.48036 26.1973 4.61242 25.9541 4.87653C25.711 5.13743 25.5606 5.50462 25.503 5.9781H28.1039V5.91046C28.0783 5.45631 27.9567 5.10523 27.7392 4.85721C27.5217 4.60598 27.2274 4.48036 26.8563 4.48036ZM32.3027 4.14216C32.9553 4.14216 33.4768 4.3628 33.867 4.80406C34.2605 5.24211 34.4573 5.82027 34.4573 6.53854V6.62068C34.4573 7.11348 34.3629 7.55475 34.1741 7.94449C33.9854 8.33098 33.7135 8.6322 33.3584 8.84799C33.0065 9.06056 32.6002 9.16684 32.1395 9.16684C31.4422 9.16684 30.8807 8.93333 30.4552 8.4663C30.0298 7.99602 29.817 7.36632 29.817 6.57719V6.14237C29.817 5.04403 30.0186 4.17115 30.4216 3.52374C30.8279 2.87633 31.4261 2.48177 32.2163 2.34004C32.6642 2.25952 32.9665 2.16128 33.1232 2.04533C33.28 1.92937 33.3584 1.76993 33.3584 1.56702H34.0877C34.0877 1.96963 33.9966 2.28368 33.8143 2.50914C33.6351 2.73461 33.3472 2.89405 32.9505 2.98746L32.2883 3.13723C31.7604 3.26284 31.3638 3.47542 31.0983 3.77497C30.8359 4.0713 30.6648 4.46748 30.5848 4.9635C31.055 4.41594 31.6277 4.14216 32.3027 4.14216ZM32.1299 4.87653C31.6949 4.87653 31.3494 5.0247 31.0934 5.32102C30.8375 5.61413 30.7095 6.02158 30.7095 6.54338V6.62068C30.7095 7.18112 30.8375 7.62561 31.0934 7.95414C31.3526 8.27945 31.7013 8.44214 32.1395 8.44214C32.581 8.44214 32.9297 8.27788 33.1857 7.94931C33.4416 7.62078 33.5695 7.14086 33.5695 6.50955C33.5695 6.01675 33.4399 5.62218 33.1808 5.32585C32.9249 5.02631 32.5746 4.87653 32.1299 4.87653ZM37.3028 6.44675H34.9612V5.7172H37.3028V6.44675ZM43.4499 6.83809C43.3635 7.58213 43.09 8.15707 42.6293 8.56293C42.1718 8.96548 41.5624 9.16684 40.8011 9.16684C39.9757 9.16684 39.3135 8.86893 38.8144 8.27302C38.3186 7.67715 38.0706 6.87996 38.0706 5.88147V5.20507C38.0706 4.55122 38.1858 3.97629 38.4161 3.48025C38.6497 2.98423 38.9792 2.60416 39.4046 2.34004C39.8302 2.0727 40.3228 1.93903 40.8826 1.93903C41.6248 1.93903 42.2198 2.1484 42.6677 2.56712C43.1156 2.98262 43.3763 3.55917 43.4499 4.29677H42.5237C42.4438 3.73632 42.2695 3.33048 42.0008 3.07925C41.7352 2.82802 41.3625 2.7024 40.8826 2.7024C40.294 2.7024 39.8317 2.92142 39.4959 3.35947C39.1631 3.79752 38.9968 4.42077 38.9968 5.22923V5.91046C38.9968 6.67382 39.1551 7.28097 39.4719 7.7319C39.7886 8.18284 40.2316 8.40833 40.8011 8.40833C41.3129 8.40833 41.7048 8.29231 41.9768 8.06044C42.2518 7.82531 42.4342 7.41786 42.5237 6.83809H43.4499ZM48.4309 4.56732H46.689V9.0702H45.8012V4.56732H44.0929V3.84262H48.4309V4.56732ZM51.0509 7.76089L52.2602 3.84262H53.2103L51.1229 9.87704C50.7998 10.7467 50.2863 11.1815 49.5826 11.1815L49.4146 11.1671L49.0835 11.1042V10.3795L49.3235 10.3988C49.6242 10.3988 49.8577 10.3376 50.024 10.2153C50.1936 10.0928 50.3327 9.86904 50.4415 9.54367L50.6382 9.01224L48.786 3.84262H49.7553L51.0509 7.76089ZM53.695 8.34063L54.0021 7.95898C54.3476 7.50805 54.5444 6.83165 54.5923 5.92979L54.6739 3.84262H58.0186V8.34063H58.6855V10.6066H57.7978V9.0702H54.1748V10.6066H53.2871L53.2919 8.34063H53.695ZM54.7459 8.34063H57.1308V4.66879H55.5328L55.48 5.91529C55.4256 6.95566 55.1809 7.76412 54.7459 8.34063ZM63.0283 3.84262H63.916V9.0702H63.0283V5.25821L60.6338 9.0702H59.746V3.84262H60.6338V7.65943L63.0283 3.84262ZM69.3097 3.84262V9.0702H68.4171V7.03618H67.0783L65.8547 9.0702H64.8949L66.2002 6.9009C65.8675 6.7785 65.6115 6.59008 65.4324 6.33562C65.2564 6.07794 65.1685 5.7784 65.1685 5.43698C65.1685 4.96028 65.346 4.57699 65.7011 4.2871C66.0562 3.994 66.5313 3.84583 67.1263 3.84262H69.3097ZM66.0611 5.44664C66.0611 5.7011 66.1474 5.90724 66.3202 6.06507C66.4929 6.21967 66.7216 6.29858 67.0064 6.3018H68.4171V4.56732H67.1407C66.8112 4.56732 66.5489 4.64946 66.3538 4.81373C66.1586 4.97477 66.0611 5.18574 66.0611 5.44664Z" fill="white"/>
<path d="M1.25403 30.7036V28.8098L12.1261 24.1877V26.2056L3.50459 29.768L12.1261 33.3642V35.3821L1.25403 30.7036ZM74.569 38.2117L79.3277 21.1213H80.94L76.1926 38.2117H74.569ZM93.0771 30.7036L82.2053 35.3821V33.3642L90.8159 29.768L82.2053 26.2056V24.1877L93.0771 28.8098V30.7036Z" fill="#D66B6B"/>
<path d="M21.3582 38.2432C19.7814 38.2432 18.5159 37.909 17.5615 37.2405C16.6279 36.5512 15.9432 35.559 15.5075 34.2638C15.0926 32.9687 14.8851 31.4125 14.8851 29.5952V21.1038C14.8851 19.2447 15.0719 17.6676 15.4453 16.3725C15.8395 15.0565 16.5241 14.0538 17.4993 13.3645C18.4951 12.6752 19.8748 12.3305 21.6383 12.3305C23.2151 12.3305 24.4806 12.602 25.435 13.1452C26.4101 13.6674 27.1156 14.482 27.5513 15.5892C27.9869 16.6754 28.2048 18.054 28.2048 19.7252V20.6652H24.906V19.8818C24.906 18.7747 24.8334 17.8765 24.6881 17.1872C24.5429 16.477 24.2421 15.9547 23.7856 15.6205C23.35 15.2654 22.6549 15.0878 21.7006 15.0878C20.6632 15.0878 19.9059 15.328 19.4288 15.8085C18.9723 16.289 18.6819 16.947 18.5574 17.7825C18.4536 18.5972 18.4018 19.5267 18.4018 20.5712V29.9712C18.4018 31.1827 18.4847 32.1958 18.6507 33.0105C18.8375 33.8252 19.1798 34.431 19.6777 34.8278C20.1756 35.2247 20.881 35.4232 21.7939 35.4232C22.7067 35.4232 23.4122 35.2038 23.9101 34.7652C24.4081 34.3265 24.7504 33.679 24.9371 32.8225C25.1238 31.966 25.2172 30.9007 25.2172 29.6265V27.8718H22.0118V25.3652H28.3915V37.9298H26.1819L25.8396 35.0158C25.5076 35.9558 24.989 36.7287 24.2836 37.3345C23.5781 37.9403 22.6031 38.2432 21.3582 38.2432ZM32.0063 37.9298V12.5498H37.079C38.7595 12.5498 40.1496 12.7796 41.2492 13.2392C42.3488 13.6778 43.1579 14.3985 43.6766 15.4012C44.2161 16.383 44.4857 17.678 44.4857 19.2865C44.4857 20.2683 44.382 21.1665 44.1745 21.9812C43.9671 22.775 43.6351 23.4538 43.1787 24.0178C42.7223 24.561 42.1206 24.9578 41.3737 25.2085L44.9525 37.9298H41.5604L38.2616 26.0232H35.523V37.9298H32.0063ZM35.523 23.4852H36.8612C37.857 23.4852 38.6662 23.3598 39.2886 23.1092C39.911 22.8585 40.3674 22.4303 40.6579 21.8245C40.9484 21.2187 41.0936 20.3727 41.0936 19.2865C41.0936 17.8034 40.8239 16.738 40.2844 16.0905C39.745 15.422 38.6766 15.0878 37.079 15.0878H35.523V23.4852ZM53.9637 38.2118C52.4491 38.2118 51.2354 37.909 50.3226 37.3032C49.4097 36.6974 48.7457 35.841 48.3309 34.7338C47.9366 33.6058 47.7396 32.2898 47.7396 30.7858C47.7396 29.9294 47.8121 29.1774 47.9574 28.5298C48.1026 27.8823 48.3101 27.3183 48.5798 26.8378C48.8702 26.3365 49.2022 25.9083 49.5757 25.5532C49.9699 25.1772 50.3951 24.843 50.8516 24.5505C50.0217 23.9865 49.3474 23.2554 48.8288 22.3572C48.3101 21.438 48.0508 20.2787 48.0508 18.8792C48.0508 17.5423 48.2582 16.383 48.6732 15.4012C49.0881 14.4194 49.7313 13.6674 50.6027 13.1452C51.4948 12.602 52.6151 12.3305 53.9637 12.3305C55.3122 12.3305 56.4118 12.602 57.2625 13.1452C58.1339 13.6674 58.777 14.4194 59.192 15.4012C59.6069 16.383 59.8144 17.5423 59.8144 18.8792C59.8144 20.2996 59.555 21.459 59.0364 22.3572C58.5385 23.2554 57.8641 23.9865 57.0135 24.5505C57.4699 24.843 57.8849 25.1772 58.2584 25.5532C58.6525 25.9083 58.9845 26.3365 59.2542 26.8378C59.5446 27.3183 59.7625 27.8823 59.9078 28.5298C60.0737 29.1774 60.1567 29.9294 60.1567 30.7858C60.1567 32.2898 59.9492 33.6058 59.5343 34.7338C59.1401 35.841 58.4865 36.6974 57.5737 37.3032C56.6815 37.909 55.4782 38.2118 53.9637 38.2118ZM53.9637 35.5485C54.7728 35.5485 55.3953 35.3396 55.831 34.9218C56.2666 34.504 56.557 33.94 56.7023 33.2298C56.8683 32.5196 56.9513 31.7258 56.9513 30.8485C56.9513 30.0547 56.8579 29.3132 56.6712 28.6238C56.5052 27.9136 56.2044 27.3392 55.7687 26.9005C55.333 26.441 54.7313 26.2112 53.9637 26.2112C53.196 26.2112 52.584 26.4305 52.1276 26.8692C51.6919 27.3078 51.3807 27.8823 51.194 28.5925C51.0072 29.2818 50.9139 30.0338 50.9139 30.8485C50.9139 31.7258 50.9968 32.5196 51.1628 33.2298C51.3288 33.94 51.6297 34.504 52.0653 34.9218C52.5218 35.3396 53.1546 35.5485 53.9637 35.5485ZM53.9637 23.0152C54.6691 22.9943 55.1981 22.775 55.5509 22.3572C55.9243 21.9394 56.1836 21.4067 56.3289 20.7592C56.4741 20.0907 56.5467 19.4014 56.5467 18.6912C56.5467 17.6467 56.36 16.759 55.9866 16.0278C55.6131 15.2967 54.9388 14.9312 53.9637 14.9312C52.9886 14.9312 52.3039 15.2967 51.9097 16.0278C51.5155 16.759 51.3184 17.6467 51.3184 18.6912C51.3184 19.4014 51.391 20.0907 51.5363 20.7592C51.6815 21.4067 51.9409 21.9394 52.3143 22.3572C52.7085 22.775 53.2583 22.9943 53.9637 23.0152ZM66.4438 37.9298V15.1818H62.1803V12.5498H74.0995V15.1818H69.9605V37.9298H66.4438Z" fill="white"/>
</svg>
