<svg width="26" height="18" viewBox="0 0 26 18" fill="none" xmlns="http://www.w3.org/2000/svg">
<path d="M25.0714 14.4H0.928571C0.682299 14.4 0.446113 14.4948 0.271972 14.6636C0.0978314 14.8324 0 15.0613 0 15.3L0 17.1C0 17.3387 0.0978314 17.5676 0.271972 17.7364C0.446113 17.9052 0.682299 18 0.928571 18H25.0714C25.3177 18 25.5539 17.9052 25.728 17.7364C25.9022 17.5676 26 17.3387 26 17.1V15.3C26 15.0613 25.9022 14.8324 25.728 14.6636C25.5539 14.4948 25.3177 14.4 25.0714 14.4ZM25.0714 7.2H0.928571C0.682299 7.2 0.446113 7.29482 0.271972 7.4636C0.0978314 7.63239 0 7.86131 0 8.1L0 9.9C0 10.1387 0.0978314 10.3676 0.271972 10.5364C0.446113 10.7052 0.682299 10.8 0.928571 10.8H25.0714C25.3177 10.8 25.5539 10.7052 25.728 10.5364C25.9022 10.3676 26 10.1387 26 9.9V8.1C26 7.86131 25.9022 7.63239 25.728 7.4636C25.5539 7.29482 25.3177 7.2 25.0714 7.2ZM25.0714 0H0.928571C0.682299 0 0.446113 0.0948216 0.271972 0.263604C0.0978314 0.432387 0 0.661305 0 0.9L0 2.7C0 2.93869 0.0978314 3.16761 0.271972 3.3364C0.446113 3.50518 0.682299 3.6 0.928571 3.6H25.0714C25.3177 3.6 25.5539 3.50518 25.728 3.3364C25.9022 3.16761 26 2.93869 26 2.7V0.9C26 0.661305 25.9022 0.432387 25.728 0.263604C25.5539 0.0948216 25.3177 0 25.0714 0Z" fill="white"/>
</svg>
