<svg width="49" height="35" viewBox="0 0 49 35" fill="none" xmlns="http://www.w3.org/2000/svg">
<g filter="url(#filter0_d)">
<path d="M44.0656 1.83094C44.3472 0.77625 44.0656 0 42.7108 0H38.2278C37.0861 0 36.5609 0.666562 36.2793 1.40906C36.2793 1.40906 33.9959 7.57687 30.7687 11.5762C29.726 12.7322 29.2465 13.1034 28.6756 13.1034C28.394 13.1034 27.9602 12.7322 27.9602 11.6775V1.83094C27.9602 0.565312 27.6405 0 26.6967 0H19.6487C18.9333 0 18.507 0.590625 18.507 1.13906C18.507 2.33719 20.1206 2.61563 20.2881 5.99063V13.3144C20.2881 14.9175 20.0293 15.2128 19.4584 15.2128C17.9362 15.2128 14.2371 9.01969 12.0451 1.93219C11.6036 0.556875 11.1698 0 10.0205 0H5.53747C4.25878 0 4 0.666562 4 1.40906C4 2.72531 5.52225 9.26438 11.0861 17.9044C14.7927 23.8022 20.0141 27 24.7635 27C27.6177 27 27.9678 26.2913 27.9678 25.0678C27.9678 19.4316 27.709 18.9 29.1399 18.9C29.8021 18.9 30.9438 19.2713 33.6077 22.1147C36.6522 25.4897 37.1546 27 38.8595 27H43.3425C44.6212 27 45.2682 26.2913 44.8952 24.8906C44.0428 21.9459 38.281 15.8878 38.0223 15.4828C37.3601 14.5378 37.5504 14.1159 38.0223 13.2722C38.0299 13.2638 43.5024 4.725 44.0656 1.83094V1.83094Z" fill="white"/>
</g>
<defs>
<filter id="filter0_d" x="0" y="0" width="49" height="35" filterUnits="userSpaceOnUse" color-interpolation-filters="sRGB">
<feFlood flood-opacity="0" result="BackgroundImageFix"/>
<feColorMatrix in="SourceAlpha" type="matrix" values="0 0 0 0 0 0 0 0 0 0 0 0 0 0 0 0 0 0 127 0"/>
<feOffset dy="4"/>
<feGaussianBlur stdDeviation="2"/>
<feColorMatrix type="matrix" values="0 0 0 0 0 0 0 0 0 0 0 0 0 0 0 0 0 0 0.25 0"/>
<feBlend mode="normal" in2="BackgroundImageFix" result="effect1_dropShadow"/>
<feBlend mode="normal" in="SourceGraphic" in2="effect1_dropShadow" result="shape"/>
</filter>
</defs>
</svg>
